name Walk3.mot
datacolumns 19
datarows 20
range 3.48100000 3.50000000
endheader

                time	   L_ground_force_vx	   L_ground_force_vy	   L_ground_force_vz	   L_ground_force_px	   L_ground_force_py	   L_ground_force_pz	   R_ground_force_vx	   R_ground_force_vy	   R_ground_force_vz	   R_ground_force_px	   R_ground_force_py	   R_ground_force_pz	   L_ground_torque_x	   L_ground_torque_y	   L_ground_torque_z	   R_ground_torque_x	   R_ground_torque_y	   R_ground_torque_z	
          3.48100000	         -0.00000000	         -0.00000000	         -0.00000000	         -0.00000000	          0.00000000	         -0.00000000	          0.02774037	          0.18671684	          0.00974179	          0.00029622	          0.00000000	          0.00008971	          0.00000000	          0.00000000	          0.00000000	          0.00000000	         -0.00581827	          0.00000000	
          3.48200000	         -0.00000000	         -0.00000000	         -0.00000000	         -0.00000000	          0.00000000	         -0.00000000	          0.02580628	          0.18086235	          0.00911349	          0.00035593	          0.00000000	          0.00010411	          0.00000000	          0.00000000	          0.00000000	          0.00000000	         -0.00562546	          0.00000000	
          3.48300000	         -0.00000000	         -0.00000000	         -0.00000000	         -0.00000000	          0.00000000	         -0.00000000	          0.02393911	          0.17482219	          0.00850417	          0.00040922	          0.00000000	          0.00011689	          0.00000000	          0.00000000	          0.00000000	          0.00000000	         -0.00542780	          0.00000000	
          3.48400000	         -0.00000000	         -0.00000000	         -0.00000000	         -0.00000000	          0.00000000	         -0.00000000	          0.02214024	          0.16863498	          0.00791452	          0.00045643	          0.00000000	          0.00012814	          0.00000000	          0.00000000	          0.00000000	          0.00000000	         -0.00522643	          0.00000000	
          3.48500000	         -0.00000000	         -0.00000000	         -0.00000000	         -0.00000000	          0.00000000	         -0.00000000	          0.02041065	          0.16233659	          0.00734510	          0.00049790	          0.00000000	          0.00013795	          0.00000000	          0.00000000	          0.00000000	          0.00000000	         -0.00502243	          0.00000000	
          3.48600000	         -0.00000000	         -0.00000000	         -0.00000000	         -0.00000000	          0.00000000	         -0.00000000	          0.01875099	          0.15596029	          0.00679634	          0.00053397	          0.00000000	          0.00014640	          0.00000000	          0.00000000	          0.00000000	          0.00000000	         -0.00481680	          0.00000000	
          3.48700000	         -0.00000000	         -0.00000000	         -0.00000000	          0.00000000	          0.00000000	         -0.00000000	          0.01716159	          0.14953680	          0.00626855	          0.00056495	          0.00000000	          0.00015359	          0.00000000	          0.00000000	          0.00000000	          0.00000000	         -0.00461045	          0.00000000	
          3.48800000	         -0.00000000	         -0.00000000	         -0.00000000	          0.00000000	          0.00000000	         -0.00000000	          0.01564248	          0.14309439	          0.00576195	          0.00059116	          0.00000000	          0.00015958	          0.00000000	          0.00000000	          0.00000000	          0.00000000	         -0.00440422	          0.00000000	
          3.48900000	         -0.00000000	         -0.00000000	         -0.00000000	          0.00000000	          0.00000000	         -0.00000000	          0.01419341	          0.13665902	          0.00527665	          0.00061291	          0.00000000	          0.00016446	          0.00000000	          0.00000000	          0.00000000	          0.00000000	         -0.00419889	          0.00000000	
          3.49000000	         -0.00000000	         -0.00000000	         -0.00000000	          0.00000000	          0.00000000	         -0.00000000	          0.01281392	          0.13025441	          0.00481268	          0.00063049	          0.00000000	          0.00016830	          0.00000000	          0.00000000	          0.00000000	          0.00000000	         -0.00399514	          0.00000000	
          3.49100000	         -0.00000000	         -0.00000000	         -0.00000000	          0.00000000	          0.00000000	          0.00000000	          0.01150330	          0.12390214	          0.00436996	          0.00064420	          0.00000000	          0.00017118	          0.00000000	          0.00000000	          0.00000000	          0.00000000	         -0.00379363	          0.00000000	
          3.49200000	         -0.00000000	         -0.00000000	         -0.00000000	          0.00000000	          0.00000000	          0.00000000	          0.01026065	          0.11762178	          0.00394838	          0.00065431	          0.00000000	          0.00017317	          0.00000000	          0.00000000	          0.00000000	          0.00000000	         -0.00359491	          0.00000000	
          3.49300000	         -0.00000000	         -0.00000000	         -0.00000000	          0.00000000	          0.00000000	          0.00000000	          0.00908488	          0.11143093	          0.00354772	          0.00066108	          0.00000000	          0.00017433	          0.00000000	          0.00000000	          0.00000000	          0.00000000	         -0.00339950	          0.00000000	
          3.49400000	         -0.00000000	         -0.00000000	         -0.00000000	          0.00000000	          0.00000000	          0.00000000	          0.00797474	          0.10534538	          0.00316772	          0.00066479	          0.00000000	          0.00017474	          0.00000000	          0.00000000	          0.00000000	          0.00000000	         -0.00320786	          0.00000000	
          3.49500000	         -0.00000000	         -0.00000000	         -0.00000000	          0.00000000	          0.00000000	          0.00000000	          0.00692886	          0.09937918	          0.00280806	          0.00066566	          0.00000000	          0.00017445	          0.00000000	          0.00000000	          0.00000000	          0.00000000	         -0.00302040	          0.00000000	
          3.49600000	         -0.00000000	         -0.00000000	         -0.00000000	          0.00000000	          0.00000000	          0.00000000	          0.00594573	          0.09354471	          0.00246837	          0.00066394	          0.00000000	          0.00017353	          0.00000000	          0.00000000	          0.00000000	          0.00000000	         -0.00283746	          0.00000000	
          3.49700000	         -0.00000000	         -0.00000000	         -0.00000000	          0.00000000	          0.00000000	          0.00000000	          0.00502371	          0.08785283	          0.00214823	          0.00065987	          0.00000000	          0.00017203	          0.00000000	          0.00000000	          0.00000000	          0.00000000	         -0.00265935	          0.00000000	
          3.49800000	         -0.00000000	         -0.00000000	         -0.00000000	          0.00000000	          0.00000000	          0.00000000	          0.00416111	          0.08231293	          0.00184719	          0.00065364	          0.00000000	          0.00017001	          0.00000000	         -0.00000000	          0.00000000	          0.00000000	         -0.00248633	          0.00000000	
          3.49900000	         -0.00000000	         -0.00000000	         -0.00000000	          0.00000000	          0.00000000	          0.00000000	          0.00335612	          0.07693301	          0.00156477	          0.00064548	          0.00000000	          0.00016752	          0.00000000	         -0.00000000	          0.00000000	          0.00000000	         -0.00231863	          0.00000000	
          3.50000000	         -0.00000000	         -0.00000000	         -0.00000000	          0.00000000	          0.00000000	          0.00000000	          0.00260690	          0.07171980	          0.00130045	          0.00063556	          0.00000000	          0.00016460	          0.00000000	         -0.00000000	          0.00000000	          0.00000000	         -0.00215643	          0.00000000	
